<?xml version="1.0" encoding="UTF-8" standalone="no"?>
<svg
   xmlns:dc="http://purl.org/dc/elements/1.1/"
   xmlns:cc="http://creativecommons.org/ns#"
   xmlns:rdf="http://www.w3.org/1999/02/22-rdf-syntax-ns#"
   xmlns:svg="http://www.w3.org/2000/svg"
   xmlns="http://www.w3.org/2000/svg"
   viewBox="0 0 287.24408 287.24408"
   height="287.24408"
   width="287.24408"
   xml:space="preserve"
   id="svg29"
   version="1.1"><metadata
     id="metadata35"><rdf:RDF><cc:Work
         rdf:about=""><dc:format>image/svg+xml</dc:format><dc:type
           rdf:resource="http://purl.org/dc/dcmitype/StillImage" /><dc:title></dc:title></cc:Work></rdf:RDF></metadata><defs
     id="defs33" /><g
     transform="matrix(1.3333333,0,0,-1.3333333,0,287.24408)"
     id="g37"><path
       transform="matrix(0.75000002,0,0,-0.75000002,0,215.43307)"
       id="path45"
       d="M 143.42578 14.234375 C 77.853855 14.250375 21.649724 63.942631 14.900391 130.58789 C 7.696362 201.67722 59.489153 265.13975 130.57812 272.34375 C 201.67218 279.54108 265.13975 227.75144 272.34375 156.66211 C 279.54108 85.574039 227.74558 22.108916 156.65625 14.90625 C 152.21358 14.45825 147.79645 14.234375 143.42578 14.234375 z M 141.16211 21.21875 C 141.59944 21.177417 141.89031 21.406417 141.93164 21.84375 C 141.93164 22.010417 141.89135 22.218417 141.82812 22.34375 L 134.93164 32.636719 C 134.84897 32.760719 134.82812 32.822099 134.82812 32.884766 C 134.85002 32.947432 134.88999 32.96975 134.97266 33.09375 L 145.61914 45.84375 C 145.70181 45.94775 145.76578 46.052083 145.78711 46.21875 C 145.82844 46.656083 145.57944 46.948901 145.16211 46.990234 L 140.18359 47.46875 C 139.91293 47.510083 139.61964 47.386052 139.43164 47.136719 L 132.16211 37.78125 C 132.07944 37.67725 131.95378 37.552885 131.78711 37.574219 C 131.68311 37.574219 131.55681 37.697401 131.49414 37.802734 L 129.99414 40.074219 L 130.74609 47.697266 C 130.78743 48.114599 130.53514 48.405932 130.11914 48.447266 L 125.86914 48.863281 C 125.45314 48.905948 125.16047 48.656234 125.11914 48.240234 L 122.74609 23.697266 C 122.70343 23.259932 122.93228 22.988599 123.34961 22.947266 L 127.59961 22.53125 C 128.01694 22.489917 128.32781 22.718917 128.36914 23.15625 L 129.03516 30.197266 C 129.13916 31.218599 129.11932 32.303719 128.97266 33.011719 L 136.05664 21.96875 C 136.18197 21.78075 136.34864 21.677583 136.55664 21.65625 L 141.16211 21.21875 z M 107.05469 27.396484 C 109.45884 27.387346 111.53428 28.396984 112.88086 30.302734 C 113.15153 30.656068 113.17156 30.696932 113.21289 30.822266 C 113.27556 31.010266 113.23487 31.176932 113.04688 31.322266 L 110.06836 33.84375 C 109.98436 33.906417 109.87954 33.970385 109.79688 34.011719 C 109.56697 34.094385 109.23503 34.010583 109.06836 33.78125 C 108.17236 32.59325 106.98486 32.280615 105.38086 32.863281 L 102.67188 33.84375 C 101.17131 34.385083 100.60953 35.926266 101.13086 37.322266 L 104.85938 47.59375 C 105.40071 49.07375 106.77539 49.802432 108.27539 49.259766 L 110.98438 48.28125 C 112.58837 47.69725 113.25437 46.740083 113.23438 45.21875 C 113.21247 44.885417 113.42106 44.656885 113.65039 44.574219 C 113.73439 44.531552 113.83951 44.511719 113.96484 44.511719 L 117.85938 44.490234 C 118.08737 44.511568 118.25374 44.614583 118.31641 44.78125 C 118.35907 44.906583 118.44351 45.156417 118.46484 45.59375 C 118.73551 48.96975 116.56724 51.69775 112.75391 53.09375 L 110.04688 54.074219 C 104.71297 56.011552 101.35954 54.364417 99.796875 50.09375 L 95.650391 38.697266 C 94.150391 34.593266 95.753781 30.90725 100.90039 29.03125 L 103.60938 28.052734 C 104.80062 27.616484 105.96189 27.400638 107.05469 27.396484 z M 162.48242 29.699219 C 162.57315 29.684844 162.67139 29.688318 162.77539 29.708984 L 165.69336 30.228516 C 166.08803 30.311182 166.29704 30.604151 166.23438 31.021484 L 165.56836 34.603516 L 169.29688 35.292969 C 169.71287 35.375635 169.94204 35.687365 169.85938 36.082031 L 169.33789 39 C 169.25389 39.416 168.94334 39.645167 168.52734 39.5625 L 164.79688 38.875 L 164.06836 42.8125 C 163.98436 43.229833 163.67139 43.459 163.27539 43.375 L 160.35938 42.855469 C 159.94149 42.771469 159.71233 42.458349 159.79688 42.041016 L 160.52734 38.103516 L 156.75391 37.396484 C 156.31657 37.333818 156.10936 36.999365 156.19336 36.582031 L 156.71289 33.666016 C 156.79689 33.270016 157.08868 33.062333 157.52734 33.125 L 161.29688 33.833984 L 161.96484 30.25 C 162.01184 29.938 162.21023 29.742344 162.48242 29.699219 z M 190.12305 30.306641 C 190.2113 30.319016 190.30196 30.349484 190.39062 30.396484 L 194.43164 32.541016 C 194.70231 32.687682 194.82812 32.915198 194.82812 33.144531 L 193.76562 47.25 C 193.66163 48.042 193.47366 48.812802 193.45312 48.855469 L 193.61914 48.9375 C 193.63914 48.896167 194.24531 48.271635 194.80664 47.792969 L 205.72461 38.896484 C 205.89128 38.749818 206.18246 38.729667 206.45312 38.875 L 210.45312 41 C 210.82833 41.188 210.95409 41.521349 210.74609 41.916016 L 199.22461 63.728516 C 199.03661 64.103182 198.66178 64.208151 198.28711 64.021484 L 194.61914 62.0625 C 194.24447 61.8745 194.14013 61.520531 194.32812 61.144531 L 197.53516 55.082031 C 199.26449 51.811365 201.68311 48.353865 201.78711 48.144531 L 201.64062 48.0625 C 201.59929 48.145167 199.45416 50.396484 198.26562 51.396484 L 191.97266 56.5 C 191.76466 56.666667 191.47394 56.666349 191.22461 56.541016 L 188.41211 55.041016 C 188.09878 54.874349 187.93147 54.667151 187.99414 54.396484 L 188.78711 46.271484 C 188.93244 44.730151 189.57812 41.604 189.57812 41.5 L 189.49414 41.4375 C 189.39014 41.6455 187.91316 45.666818 186.14062 49.021484 L 182.91211 55.125 C 182.72411 55.499667 182.34881 55.604016 181.99414 55.416016 L 178.22461 53.416016 C 177.86994 53.229349 177.74497 52.874667 177.93164 52.5 L 189.45312 30.6875 C 189.60966 30.3905 189.8583 30.269516 190.12305 30.306641 z M 77.777344 40.882812 C 77.910177 40.875146 78.036625 40.911859 78.140625 41.005859 L 98.369141 57.609375 C 98.453141 57.692042 98.472958 57.734057 98.515625 57.775391 C 98.619625 57.942057 98.578792 58.08724 98.328125 58.253906 L 94.203125 61.068359 C 94.016458 61.192359 93.828927 61.192359 93.683594 61.068359 L 90.912109 58.650391 C 90.724109 58.525057 90.619958 58.546073 90.390625 58.691406 L 83.972656 63.068359 C 83.723323 63.235026 83.662094 63.317391 83.746094 63.525391 L 84.972656 66.984375 C 85.015323 67.192375 84.953776 67.359042 84.787109 67.484375 L 80.683594 70.275391 C 80.432927 70.442057 80.245958 70.442057 80.140625 70.275391 C 80.079292 70.191391 80.015323 70.025875 79.972656 69.921875 C 79.972656 69.859208 72.035156 45.150391 72.035156 45.150391 C 71.97249 44.879724 72.098943 44.63151 72.349609 44.464844 L 77.369141 41.025391 C 77.504474 40.942057 77.64451 40.890537 77.777344 40.882812 z M 78.994141 48.234375 L 78.412109 48.630859 L 78.806641 49.402344 L 81.746094 57.880859 C 81.850094 58.110193 82.036276 58.192375 82.349609 57.984375 L 86.224609 55.337891 C 86.536609 55.129891 86.536276 54.921042 86.349609 54.734375 L 79.556641 48.880859 L 78.994141 48.234375 z M 225.58398 53.607422 C 225.78105 53.581922 225.98463 53.6565 226.14062 53.8125 L 230.51562 58.0625 C 230.74549 58.2705 230.80759 58.542302 230.68359 58.792969 L 218.49414 81.958984 C 218.45281 82.062984 218.43249 82.103198 218.39062 82.144531 C 218.24529 82.269865 218.09847 82.270349 217.86914 82.041016 L 214.28711 78.582031 C 214.12044 78.415365 214.07959 78.249167 214.18359 78.0625 L 215.99414 74.855469 C 216.09814 74.667469 216.03665 74.583 215.82812 74.375 L 210.26562 68.978516 C 210.03629 68.749182 209.95415 68.729833 209.76562 68.8125 L 206.61914 70.728516 C 206.43114 70.811182 206.26447 70.791198 206.11914 70.644531 L 202.55664 67.1875 C 202.32731 66.978167 202.28631 66.791349 202.43164 66.666016 C 202.49431 66.582016 202.64076 66.500016 202.74609 66.416016 C 202.80743 66.396016 225.39062 53.666016 225.39062 53.666016 C 225.45349 53.634682 225.5183 53.615922 225.58398 53.607422 z M 143.61914 54.494141 C 192.84314 54.494141 232.74609 94.401001 232.74609 143.625 C 232.74609 181.645 208.93211 214.09825 175.41211 226.90625 L 175.41211 250.39648 L 171.42578 254.38086 L 170.21875 255.59961 L 155.72461 255.59961 L 154.50977 254.38086 L 151.75 251.61523 L 150.53125 250.39648 L 146.54688 254.38086 L 145.33789 255.59961 L 130.83789 255.59961 L 129.63086 254.38086 L 125.64453 250.39648 L 125.64453 230.94727 C 85.029938 222.63527 54.490234 186.697 54.490234 143.625 C 54.490234 94.401001 94.395214 54.494141 143.61914 54.494141 z M 57.595703 56.681641 C 57.759703 56.665807 57.932943 56.729 58.099609 56.875 L 76.806641 72.958984 C 77.119974 73.229651 77.161292 73.582682 76.890625 73.916016 L 74.119141 77.125 C 73.827141 77.458333 73.453958 77.479651 73.140625 77.208984 L 66.015625 71.082031 C 65.702292 70.811365 65.348792 70.854016 65.078125 71.166016 L 60.287109 76.75 C 60.016443 77.063333 60.036276 77.438318 60.349609 77.708984 L 67.472656 83.833984 C 67.78599 84.104651 67.805823 84.459635 67.535156 84.792969 L 64.765625 88.021484 C 64.494958 88.333484 64.099109 88.374182 63.787109 88.103516 L 45.078125 72.021484 C 44.744792 71.729484 44.744958 71.3745 45.015625 71.0625 L 47.787109 67.833984 C 48.057776 67.500651 48.432292 67.459333 48.765625 67.75 L 55.431641 73.478516 C 55.744974 73.749182 56.098474 73.708484 56.369141 73.396484 L 61.162109 67.8125 C 61.432776 67.5005 61.412943 67.126135 61.099609 66.855469 L 54.431641 61.125 C 54.098307 60.833 54.078474 60.499349 54.369141 60.166016 L 57.140625 56.958984 C 57.276625 56.792318 57.431703 56.697474 57.595703 56.681641 z M 223.28711 60.603516 L 222.64062 61.125 L 214.89062 65.75 C 214.68263 65.875333 214.64011 66.063318 214.91211 66.333984 L 218.28711 69.603516 C 218.55778 69.874182 218.76529 69.833 218.89062 69.625 L 223.28711 61.771484 L 223.80664 61.103516 L 223.28711 60.603516 z M 242.71484 72.492188 C 242.9024 72.518271 243.06584 72.638391 243.18359 72.837891 L 245.41211 76.484375 C 245.62011 76.839042 245.55826 77.192542 245.18359 77.421875 L 239.14062 81.109375 C 238.26596 81.630708 237.28597 82.087391 236.55664 82.275391 L 249.57812 83.837891 C 249.80678 83.879224 249.97279 84.005208 250.07812 84.171875 L 252.47266 88.130859 C 252.70199 88.505526 252.62076 88.839026 252.24609 89.068359 C 252.09943 89.151026 251.91295 89.234073 251.76562 89.191406 L 239.47266 87.464844 C 239.30599 87.464844 239.28728 87.464375 239.22461 87.484375 C 239.18328 87.525708 239.16228 87.587557 239.09961 87.712891 L 232.22461 102.81836 C 232.16194 102.96503 232.09912 103.04686 231.95312 103.13086 C 231.57846 103.35886 231.20214 103.27654 230.99414 102.92188 L 228.39062 98.650391 C 228.26529 98.401057 228.24529 98.089026 228.39062 97.818359 L 233.64062 87.212891 C 233.70395 87.108891 233.76611 86.900573 233.66211 86.753906 C 233.62078 86.67124 233.45412 86.630557 233.32812 86.587891 L 230.66211 86.253906 L 224.09961 90.234375 C 223.74628 90.442375 223.37011 90.359193 223.16211 90.005859 L 220.93164 86.359375 C 220.72364 86.006042 220.80744 85.631208 221.16211 85.421875 L 242.24609 72.609375 C 242.33976 72.552042 242.43045 72.515005 242.51953 72.498047 C 242.58634 72.485328 242.65233 72.483428 242.71484 72.492188 z M 143.61914 72.847656 A 4.424045 4.424045 0 0 0 140.49219 74.142578 L 134.96094 79.673828 A 4.424045 4.424045 0 0 0 138.04102 87.269531 A 4.424045 4.424045 0 0 0 141.2168 85.931641 L 145.45312 81.695312 L 176.79688 81.695312 A 4.424045 4.424045 0 1 0 176.79688 72.847656 L 143.61914 72.847656 z M 176.79688 74.505859 C 178.32221 74.505859 179.55664 75.746151 179.55664 77.271484 C 179.55664 78.798151 178.32221 80.035156 176.79688 80.035156 C 175.26461 80.035156 174.03125 78.798151 174.03125 77.271484 C 174.03125 75.746151 175.26461 74.505859 176.79688 74.505859 z M 96.615234 78.378906 A 4.424045 4.424045 0 1 0 96.615234 87.226562 L 127.03125 87.226562 A 4.424045 4.424045 0 1 0 127.03125 78.378906 L 96.615234 78.378906 z M 96.615234 80.035156 C 98.145901 80.035156 99.380859 81.270734 99.380859 82.802734 C 99.380859 84.328068 98.145901 85.5625 96.615234 85.5625 C 95.088568 85.5625 93.855469 84.328068 93.855469 82.802734 C 93.855469 81.270734 95.088568 80.035156 96.615234 80.035156 z M 127.03125 80.035156 C 128.55792 80.035156 129.79297 81.270734 129.79297 82.802734 C 129.79297 84.328068 128.55792 85.5625 127.03125 85.5625 C 125.50058 85.5625 124.26588 84.328068 124.26562 82.802734 C 124.26562 81.270734 125.50058 80.035156 127.03125 80.035156 z M 138.08789 80.035156 C 139.61456 80.035156 140.85547 81.270734 140.85547 82.802734 C 140.85547 84.328068 139.61456 85.5625 138.08789 85.5625 C 136.56256 85.5625 135.32227 84.328068 135.32227 82.802734 C 135.32227 81.270734 136.56256 80.035156 138.08789 80.035156 z M 149.18359 83.837891 A 4.424045 4.424045 0 0 0 146.01758 85.199219 L 130.72461 100.49414 L 93.853516 100.49414 A 4.424045 4.424045 0 0 0 90.726562 101.78906 L 87.960938 104.55469 A 4.424045 4.424045 0 0 0 91.041016 112.15039 A 4.424045 4.424045 0 0 0 94.216797 110.8125 L 95.6875 109.33984 L 132.55664 109.33984 A 4.424045 4.424045 0 0 0 135.68555 108.04688 L 152.27344 91.455078 A 4.424045 4.424045 0 0 0 149.18359 83.837891 z M 159.96289 83.90625 A 4.424045 4.424045 0 1 0 159.96289 92.751953 L 196.83398 92.751953 L 199.77344 95.691406 L 199.77344 103.08594 L 196.83398 106.02539 L 165.73438 106.02539 A 4.424045 4.424045 0 1 0 165.73438 114.87109 L 198.66602 114.87109 A 4.424045 4.424045 0 0 0 201.79492 113.57422 L 207.32617 108.04688 A 4.424045 4.424045 0 0 0 208.61914 104.91797 L 208.61914 93.861328 A 4.424045 4.424045 0 0 0 207.32617 90.734375 L 201.79492 85.199219 A 4.424045 4.424045 0 0 0 198.66602 83.90625 L 159.96289 83.90625 z M 149.14453 85.5625 C 150.6712 85.5625 151.91211 86.802792 151.91211 88.328125 C 151.91211 89.854792 150.6712 91.09375 149.14453 91.09375 C 147.6192 91.09375 146.38086 89.854792 146.38086 88.328125 C 146.38086 86.802792 147.6192 85.5625 149.14453 85.5625 z M 160.20703 85.5625 C 161.7337 85.5625 162.96875 86.802792 162.96875 88.328125 C 162.96875 89.854792 161.7337 91.09375 160.20703 91.09375 C 158.67636 91.09375 157.44336 89.854792 157.44336 88.328125 C 157.44336 86.802792 158.67636 85.5625 160.20703 85.5625 z M 88.322266 89.4375 A 4.424045 4.424045 0 0 0 85.195312 90.730469 L 68.607422 107.32031 A 4.424045 4.424045 0 0 0 67.310547 110.44727 L 67.310547 143.625 A 4.424045 4.424045 0 0 0 71.669922 148.11133 A 4.424045 4.424045 0 0 0 76.158203 143.625 L 76.158203 112.28125 L 90.15625 98.283203 L 127.03125 98.283203 A 4.424045 4.424045 0 1 0 127.03125 89.4375 L 88.322266 89.4375 z M 127.03125 91.09375 C 128.55792 91.09375 129.79297 92.334042 129.79297 93.859375 C 129.79297 95.386042 128.55792 96.625 127.03125 96.625 C 125.50058 96.625 124.26596 95.386042 124.26562 93.859375 C 124.26562 92.334042 125.50058 91.09375 127.03125 91.09375 z M 154.67773 94.96875 A 4.424045 4.424045 0 0 0 151.55273 96.261719 L 146.01758 101.78906 A 4.424045 4.424045 0 0 0 149.0957 109.38477 A 4.424045 4.424045 0 0 0 152.27148 108.04688 L 156.50781 103.81445 L 193.38477 103.81445 A 4.424045 4.424045 0 1 0 193.38477 94.96875 L 154.67773 94.96875 z M 193.38477 96.625 C 194.91143 96.625 196.14453 97.858625 196.14453 99.390625 C 196.14453 100.91596 194.91143 102.15039 193.38477 102.15039 C 191.8541 102.15039 190.61914 100.91596 190.61914 99.390625 C 190.61914 97.858625 191.8541 96.625 193.38477 96.625 z M 256.98438 99.982422 C 257.2535 100.00661 257.45221 100.19714 257.54688 100.49414 L 262.17188 115.51562 C 262.29721 115.91229 262.15037 116.24514 261.73438 116.36914 L 258.13086 117.49414 C 257.73486 117.61947 257.40072 117.41229 257.27539 117.01562 L 254.31641 107.39062 C 254.19241 106.97329 253.86069 106.80631 253.44336 106.93164 L 249.85938 108.03516 C 249.46271 108.16049 249.29721 108.49478 249.42188 108.91211 L 251.85938 116.80664 C 251.98337 117.22397 251.79819 117.53678 251.38086 117.66211 L 247.79688 118.76562 C 247.40021 118.89163 247.08884 118.72397 246.96484 118.30664 L 244.52734 110.41211 C 244.40201 109.99478 244.04639 109.82779 243.65039 109.95312 L 239.88086 111.11914 C 239.48486 111.24447 239.29721 111.57814 239.42188 111.99414 L 242.38086 121.61914 C 242.50619 122.01514 242.36069 122.34866 241.94336 122.47266 L 238.35938 123.57812 C 237.94137 123.70279 237.60971 123.51514 237.48438 123.11914 L 232.85938 108.09961 C 232.73337 107.70361 232.90041 107.34994 233.31641 107.22461 L 256.69336 100.01562 C 256.79736 99.984627 256.894 99.974359 256.98438 99.982422 z M 41.53125 101.29688 C 42.099361 101.33754 43.541944 106.10999 43.978516 106.48047 C 44.421498 106.84935 49.369439 107.45835 49.509766 108.01562 C 49.645562 108.56896 45.552365 111.41664 45.337891 111.94727 C 45.119143 112.47895 46.07324 117.37457 45.589844 117.67578 C 45.100034 117.97859 41.123947 114.96783 40.556641 114.92578 C 39.983727 114.88391 35.619015 117.30273 35.181641 116.93359 C 34.74399 116.56791 36.386603 111.85363 36.244141 111.29688 C 36.109422 110.73874 32.458986 107.34418 32.677734 106.8125 C 32.890874 106.28106 37.875152 106.385 38.365234 106.07812 C 38.849436 105.77557 40.958337 101.25446 41.53125 101.29688 z M 149.14453 102.15039 C 150.6712 102.15039 151.91211 103.39068 151.91211 104.91602 C 151.91211 106.44268 150.6712 107.68359 149.14453 107.68359 C 147.6192 107.68359 146.38086 106.44268 146.38086 104.91602 C 146.38086 103.39068 147.6192 102.15039 149.14453 102.15039 z M 91.087891 104.91602 C 92.614557 104.91602 93.855469 106.15693 93.855469 107.68359 C 93.855469 109.20893 92.614557 110.44727 91.087891 110.44727 C 89.562557 110.44727 88.322266 109.20893 88.322266 107.68359 C 88.322266 106.15693 89.562557 104.91602 91.087891 104.91602 z M 165.73438 107.68359 C 167.25971 107.68359 168.5 108.9206 168.5 110.44727 C 168.5 111.9726 167.25971 113.21289 165.73438 113.21289 C 164.20765 113.21289 162.96875 111.9726 162.96875 110.44727 C 162.96875 108.9206 164.20765 107.68359 165.73438 107.68359 z M 140.89648 108.70117 A 4.424045 4.424045 0 0 0 136.43164 113.21289 L 136.43164 122.61133 L 131.45312 122.61133 L 131.45312 115.97852 A 4.424045 4.424045 0 0 0 127.03125 111.55469 L 102.14648 111.55469 A 4.424045 4.424045 0 0 0 99.017578 112.85156 L 90.726562 121.14258 A 4.424045 4.424045 0 0 0 89.431641 124.26953 L 89.431641 143.625 A 4.424045 4.424045 0 0 0 90.724609 146.75195 L 96.25 152.2832 A 4.424045 4.424045 0 0 0 99.380859 153.58008 L 125.19727 153.58008 L 133.66406 162.04688 L 133.66406 176.80078 A 4.424045 4.424045 0 0 0 138.02148 181.28906 A 4.424045 4.424045 0 0 0 142.50977 176.80078 L 142.50977 160.21289 A 4.424045 4.424045 0 0 0 141.2168 157.08594 L 130.1582 146.02734 A 4.424045 4.424045 0 0 0 127.03125 144.73438 L 101.21289 144.73438 L 98.279297 141.79297 L 98.279297 126.10352 L 103.97656 120.40234 L 122.60742 120.40234 L 122.60742 138.09375 A 4.424045 4.424045 0 1 0 131.45312 138.09375 L 131.45312 131.46094 L 136.43164 131.46094 L 136.43164 146.39062 A 4.424045 4.424045 0 0 0 140.78906 150.87695 A 4.424045 4.424045 0 0 0 145.2793 146.39062 L 145.2793 113.21289 A 4.424045 4.424045 0 0 0 140.89648 108.70117 z M 140.85547 110.44727 C 142.3808 110.44727 143.61914 111.68756 143.61914 113.21289 C 143.61914 114.73956 142.3808 115.97852 140.85547 115.97852 C 139.3288 115.97852 138.08789 114.73956 138.08789 113.21289 C 138.08789 111.68756 139.3288 110.44727 140.85547 110.44727 z M 210.01367 111.4668 A 4.424045 4.424045 0 0 0 205.54883 115.97852 L 205.54883 152.85156 L 202.60938 155.79102 L 198.91211 155.79102 A 4.424045 4.424045 0 1 0 198.91211 164.63672 L 204.44336 164.63672 A 4.424045 4.424045 0 0 0 207.57031 163.33984 L 213.10156 157.8125 A 4.424045 4.424045 0 0 0 214.39648 154.68164 L 214.39648 115.97852 A 4.424045 4.424045 0 0 0 210.01367 111.4668 z M 82.919922 111.55664 A 4.4244786 4.4244786 0 0 0 78.367188 115.97852 L 78.367188 149.15625 A 4.424045 4.424045 0 0 0 79.664062 152.28516 L 90.726562 163.34375 A 4.424045 4.424045 0 0 0 93.853516 164.63672 L 121.5 164.63672 A 4.424045 4.424045 0 1 0 121.5 155.79102 L 95.6875 155.79102 L 87.216797 147.32227 L 87.216797 115.97852 A 4.4244786 4.4244786 0 0 0 82.919922 111.55664 z M 82.792969 113.21289 C 84.318302 113.21289 85.556641 114.44785 85.556641 115.97852 C 85.556641 117.50518 84.318302 118.74023 82.792969 118.74023 C 81.266302 118.74023 80.027344 117.50518 80.027344 115.97852 C 80.027344 114.44785 81.266302 113.21289 82.792969 113.21289 z M 127.03125 113.21289 C 128.55792 113.21289 129.79297 114.44785 129.79297 115.97852 C 129.79297 117.50518 128.55792 118.74023 127.03125 118.74023 C 125.50058 118.74023 124.26612 117.50518 124.26562 115.97852 C 124.26562 114.44785 125.50058 113.21289 127.03125 113.21289 z M 209.97266 113.21289 C 211.49932 113.21289 212.73437 114.44785 212.73438 115.97852 C 212.73438 117.50518 211.49932 118.74023 209.97266 118.74023 C 208.44199 118.74023 207.20703 117.50518 207.20703 115.97852 C 207.20703 114.44785 208.44199 113.21289 209.97266 113.21289 z M 157.50781 114.31641 A 4.424045 4.424045 0 0 0 154.31445 115.61133 L 148.7832 121.14258 A 4.424045 4.424045 0 0 0 147.49023 124.26953 L 147.49023 160.21289 A 4.424045 4.424045 0 0 0 151.8457 164.69922 A 4.424045 4.424045 0 0 0 156.33594 160.21289 L 156.33594 126.10352 L 157.44336 124.99609 L 158.54688 126.10156 L 158.54688 138.09375 A 4.424045 4.424045 0 1 0 167.39258 138.09375 L 167.39258 124.26953 A 4.424045 4.424045 0 0 0 166.09961 121.14453 L 160.57227 115.61328 A 4.424045 4.424045 0 0 0 157.50781 114.31641 z M 174.07227 116.99219 A 4.424045 4.424045 0 0 0 169.60742 121.50391 L 169.60742 138.09375 A 4.424045 4.424045 0 0 0 173.96289 142.58008 A 4.424045 4.424045 0 0 0 178.45312 138.09375 L 178.45312 121.50391 A 4.424045 4.424045 0 0 0 174.07227 116.99219 z M 185.08789 117.08203 A 4.424045 4.424045 0 0 0 180.66406 121.50391 L 180.66406 138.09375 A 4.424045 4.424045 0 1 0 189.50977 138.09375 L 189.50977 125.92969 L 194.49023 125.92969 L 194.49023 149.15625 A 4.424045 4.424045 0 0 0 198.8457 153.64258 A 4.424045 4.424045 0 0 0 203.33594 149.15625 L 203.33594 121.50391 A 4.424045 4.424045 0 0 0 198.91211 117.08203 L 185.08789 117.08203 z M 174.03125 118.74023 C 175.55792 118.74023 176.79687 119.97919 176.79688 121.50586 C 176.79688 123.03119 175.55792 124.27148 174.03125 124.27148 C 172.50592 124.27148 171.26563 123.03119 171.26562 121.50586 C 171.26562 119.97919 172.50592 118.74023 174.03125 118.74023 z M 104.94922 122.54883 A 4.424045 4.424045 0 0 0 101.7832 130.16406 L 104.18555 132.56641 L 101.78711 134.96289 A 4.424045 4.424045 0 0 0 104.86523 142.5625 A 4.424045 4.424045 0 0 0 108.03906 141.22266 L 110.44336 138.82227 L 112.8418 141.2207 A 4.424045 4.424045 0 0 0 115.88281 142.55859 A 4.424045 4.424045 0 0 0 119.0957 134.96484 L 116.69727 132.56641 L 119.09961 130.16406 A 4.424045 4.424045 0 0 0 116.00586 122.54883 A 4.424045 4.424045 0 0 0 112.8418 123.91016 L 110.44141 126.31055 L 108.03906 123.9082 A 4.424045 4.424045 0 0 0 104.94922 122.54883 z M 104.91211 124.27148 C 106.43744 124.27148 107.67773 125.50982 107.67773 127.03516 C 107.67773 128.56182 106.43744 129.80273 104.91211 129.80273 C 103.38544 129.80273 102.14453 128.56182 102.14453 127.03516 C 102.14453 125.50982 103.38544 124.27148 104.91211 124.27148 z M 115.96875 124.27148 C 117.49408 124.27148 118.73437 125.50982 118.73438 127.03516 C 118.73438 128.56182 117.49408 129.80273 115.96875 129.80273 C 114.44208 129.80273 113.20353 128.56182 113.20312 127.03516 C 113.20312 125.50982 114.44208 124.27148 115.96875 124.27148 z M 258.24609 126.87891 C 261.65865 127.04574 264.94172 130.18227 265.29297 135.25977 C 265.58497 139.51043 263.85417 142.78173 260.6875 144.17773 C 260.25017 144.30307 260.20736 144.32227 260.08203 144.32227 C 259.89536 144.3436 259.72853 144.26105 259.64453 144.01172 L 258.0625 140.44727 C 258.02117 140.34327 257.99985 140.26025 257.97852 140.15625 C 257.95852 139.90692 258.12582 139.6569 258.39648 139.49023 C 259.66715 138.80357 260.374 137.44793 260.25 135.69727 C 260.12467 133.75993 258.97802 132.71873 257.66602 132.80273 C 256.37402 132.8854 255.6035 134.0101 254.6875 137.38477 C 253.27017 142.84343 250.74852 145.46942 247.22852 145.71875 C 242.41518 146.03075 239.10303 142.86472 238.70703 137.13672 C 238.39503 132.49005 240.18785 128.88605 243.47852 127.63672 C 243.89585 127.47005 243.9585 127.46875 244.0625 127.46875 C 244.2505 127.44742 244.43748 127.55192 244.52148 127.78125 L 246.25 131.53125 C 246.29133 131.63658 246.31265 131.7396 246.33398 131.82227 C 246.35532 132.07293 246.18864 132.32208 245.91797 132.46875 C 244.5633 133.21808 243.79217 134.55207 243.9375 136.80273 C 244.08283 138.8854 245.20767 139.88525 246.625 139.78125 C 247.917 139.69725 248.918 138.71843 249.75 135.25977 C 251.126 129.6771 253.60383 127.15543 257.5625 126.88477 C 257.79033 126.86918 258.01859 126.86778 258.24609 126.87891 z M 104.91211 135.32812 C 106.43744 135.32812 107.67773 136.56842 107.67773 138.09375 C 107.67773 139.62042 106.43744 140.85897 104.91211 140.85938 C 103.38544 140.85938 102.14453 139.62042 102.14453 138.09375 C 102.14453 136.56842 103.38544 135.32813 104.91211 135.32812 z M 115.96875 135.32812 C 117.49408 135.32812 118.73437 136.56842 118.73438 138.09375 C 118.73438 139.62042 117.49408 140.85898 115.96875 140.85938 C 114.44208 140.85938 113.20351 139.62042 113.20312 138.09375 C 113.20312 136.56842 114.44208 135.32813 115.96875 135.32812 z M 127.03125 135.32812 C 128.55792 135.32812 129.79297 136.56842 129.79297 138.09375 C 129.79297 139.62042 128.55792 140.85887 127.03125 140.85938 C 125.50058 140.85938 124.26613 139.62042 124.26562 138.09375 C 124.26562 136.56842 125.50058 135.32813 127.03125 135.32812 z M 162.96875 135.32812 C 164.49942 135.32812 165.73437 136.56842 165.73438 138.09375 C 165.73438 139.62042 164.49942 140.85927 162.96875 140.85938 C 161.44208 140.85938 160.20703 139.62042 160.20703 138.09375 C 160.20703 136.56842 161.44208 135.32813 162.96875 135.32812 z M 174.03125 135.32812 C 175.55792 135.32812 176.79687 136.56842 176.79688 138.09375 C 176.79688 139.62042 175.55792 140.85928 174.03125 140.85938 C 172.50592 140.85938 171.26563 139.62042 171.26562 138.09375 C 171.26562 136.56842 172.50592 135.32813 174.03125 135.32812 z M 185.08789 135.32812 C 186.61456 135.32812 187.85547 136.56842 187.85547 138.09375 C 187.85547 139.62042 186.61456 140.85934 185.08789 140.85938 C 183.56256 140.85938 182.32227 139.62042 182.32227 138.09375 C 182.32227 136.56842 183.56256 135.32813 185.08789 135.32812 z M 46.71875 138.95312 C 46.864083 138.93179 47.031401 139.09864 47.052734 139.30664 L 47.322266 144.49414 C 47.343599 144.80614 47.260734 145.01678 47.052734 145.16211 L 41.28125 148.45312 C 40.739917 148.70307 39.010099 149.57894 38.384766 149.84961 L 38.384766 149.97266 C 39.968766 149.78599 41.114417 150.24531 43.84375 151.30664 L 47.46875 152.95312 C 47.69675 153.05773 47.802266 153.30613 47.822266 153.57812 L 48.115234 159.01562 C 48.115234 159.22423 47.926583 159.36929 47.78125 159.39062 C 47.67725 159.39063 47.552901 159.36961 47.490234 159.34961 L 34.759766 153.18359 C 34.655766 153.14093 34.551583 153.07812 34.40625 153.07812 C 34.259583 153.09873 34.178068 153.18296 34.052734 153.26562 L 22.71875 160.45312 C 22.593417 160.55773 22.529781 160.55664 22.425781 160.55664 C 22.217781 160.57797 22.115083 160.39161 22.09375 160.09961 L 21.802734 154.82812 C 21.781401 154.39079 21.969417 154.20197 22.21875 154.05664 L 28.074219 150.82812 C 28.594219 150.55746 30.031068 149.76481 30.677734 149.49414 L 30.65625 149.36914 C 29.510917 149.43181 27.59275 148.86897 25.46875 147.93164 L 21.802734 146.28711 C 21.530734 146.16178 21.322734 145.97249 21.302734 145.53516 L 21.03125 140.32812 C 21.01125 140.01613 21.114266 139.86961 21.322266 139.84961 C 21.426266 139.84961 21.55225 139.89031 21.65625 139.93164 L 34.509766 146.18359 C 34.655099 146.26626 34.780766 146.26623 34.884766 146.26562 C 35.010099 146.26563 35.11475 146.22523 35.21875 146.14062 L 46.425781 139.01562 C 46.488448 138.97296 46.593417 138.95312 46.71875 138.95312 z M 71.734375 140.85938 C 73.259708 140.85938 74.5 142.09833 74.5 143.625 C 74.5 145.15033 73.259708 146.39062 71.734375 146.39062 C 70.207708 146.39062 68.96875 145.15033 68.96875 143.625 C 68.96875 142.09833 70.207708 140.85903 71.734375 140.85938 z M 140.85547 143.625 C 142.3808 143.625 143.61914 144.86396 143.61914 146.39062 C 143.61914 147.91641 142.3808 149.15625 140.85547 149.15625 C 139.3288 149.15625 138.08789 147.91641 138.08789 146.39062 C 138.08789 144.86396 139.3288 143.625 140.85547 143.625 z M 187.89648 144.64453 A 4.424045 4.424045 0 0 0 183.43164 149.15625 L 183.43164 152.85156 L 173.66992 162.61914 A 4.424045 4.424045 0 0 0 172.375 165.74414 L 172.375 171.26953 A 4.424045 4.424045 0 0 0 176.73242 175.75781 A 4.424045 4.424045 0 0 0 181.2207 171.26953 L 181.2207 167.57812 L 190.98438 157.80859 A 4.424045 4.424045 0 0 0 192.2793 154.68164 L 192.2793 149.15625 A 4.424045 4.424045 0 0 0 187.89648 144.64453 z M 162.96875 144.73438 A 4.424045 4.424045 0 0 0 158.54688 149.15625 L 158.54688 160.21289 A 4.424045 4.424045 0 0 0 159.8418 163.33984 L 162.60742 166.10547 A 4.424045 4.424045 0 0 0 165.64844 167.44531 A 4.424045 4.424045 0 0 0 168.86133 159.85156 L 167.39258 158.38281 L 167.39258 153.58008 L 176.79688 153.58008 A 4.424045 4.424045 0 1 0 176.79688 144.73438 L 162.96875 144.73438 z M 176.79688 146.39062 C 178.32221 146.39062 179.55664 147.62558 179.55664 149.15625 C 179.55664 150.68292 178.32221 151.91602 176.79688 151.91602 C 175.26475 151.91602 174.03125 150.68292 174.03125 149.15625 C 174.03125 147.62558 175.26475 146.39062 176.79688 146.39062 z M 187.85547 146.39062 C 189.3808 146.39062 190.61914 147.62558 190.61914 149.15625 C 190.61914 150.68292 189.3808 151.91602 187.85547 151.91602 C 186.3288 151.91602 185.08789 150.68292 185.08789 149.15625 C 185.08789 147.62558 186.3288 146.39062 187.85547 146.39062 z M 198.91211 146.39062 C 200.43744 146.39062 201.67773 147.62558 201.67773 149.15625 C 201.67773 150.68292 200.43744 151.91602 198.91211 151.91602 C 197.38544 151.91602 196.14453 150.68292 196.14453 149.15625 C 196.14453 147.62558 197.38544 146.39062 198.91211 146.39062 z M 239.99023 151.19141 L 264.15625 155.02539 C 264.57358 155.08806 264.78142 155.40236 264.71875 155.81836 L 263.21875 165.21289 C 262.36408 170.65022 258.96958 172.88019 254.15625 172.13086 L 253.55273 172.02539 C 249.5314 171.40139 246.15658 168.08819 247.03125 162.63086 L 247.61523 158.81836 C 247.6979 158.40236 247.49022 158.10954 247.07422 158.04688 L 239.11523 156.77539 C 238.6979 156.71272 238.46992 156.40171 238.53125 155.98438 L 239.19727 151.77539 C 239.25993 151.35806 239.57423 151.13007 239.99023 151.19141 z M 121.5 157.44727 C 123.02667 157.44727 124.266 158.68756 124.26562 160.21289 C 124.26562 161.73956 123.02667 162.97852 121.5 162.97852 C 119.97333 162.97852 118.73437 161.73956 118.73438 160.21289 C 118.73438 158.68756 119.97333 157.44727 121.5 157.44727 z M 151.91211 157.44727 C 153.43744 157.44727 154.67773 158.68756 154.67773 160.21289 C 154.67773 161.73956 153.43744 162.97852 151.91211 162.97852 C 150.38544 162.97852 149.14453 161.73956 149.14453 160.21289 C 149.14453 158.68756 150.38544 157.44727 151.91211 157.44727 z M 198.91211 157.44727 C 200.43744 157.44727 201.67773 158.68756 201.67773 160.21289 C 201.67773 161.73956 200.43744 162.97852 198.91211 162.97852 C 197.38544 162.97852 196.14453 161.73956 196.14453 160.21289 C 196.14453 158.68756 197.38544 157.44727 198.91211 157.44727 z M 253.46875 159.04688 C 253.03008 158.98352 252.74025 159.19135 252.65625 159.60938 L 252.05273 163.54688 C 251.8034 165.10954 252.67661 166.48324 254.36328 166.75391 L 254.92578 166.83789 C 256.61378 167.10856 257.90692 166.06853 258.15625 164.50586 L 258.75977 160.56836 C 258.84377 160.15103 258.63593 159.85821 258.19727 159.79688 L 253.46875 159.04688 z M 165.73438 160.21289 C 167.25971 160.21289 168.5 161.45318 168.5 162.97852 C 168.5 164.50518 167.25971 165.74609 165.73438 165.74609 C 164.20757 165.74609 162.96875 164.50518 162.96875 162.97852 C 162.96875 161.45318 164.20757 160.21289 165.73438 160.21289 z M 48.724609 164.36328 C 48.994297 164.37284 49.193109 164.55261 49.287109 164.84961 L 50.640625 168.89062 C 50.765958 169.28724 50.620458 169.64044 50.203125 169.78711 L 41.849609 172.53516 C 41.453609 172.66049 41.306307 172.97329 41.431641 173.39062 L 43.724609 180.34961 C 43.849943 180.74561 44.160641 180.93197 44.556641 180.80664 L 52.912109 178.05664 C 53.328109 177.91131 53.640443 178.05666 53.787109 178.47266 L 55.119141 182.51562 C 55.244474 182.91224 55.099594 183.24529 54.683594 183.39062 L 31.246094 191.09961 C 30.850094 191.22494 30.515958 191.05811 30.390625 190.66211 L 29.056641 186.61914 C 28.911307 186.20181 29.07799 185.89158 29.472656 185.76562 L 38.412109 182.82812 C 38.806776 182.68279 38.953458 182.34974 38.828125 181.95312 L 36.535156 174.99414 C 36.411156 174.57814 36.099125 174.41131 35.703125 174.55664 L 26.765625 177.49414 C 26.369625 177.61947 26.036109 177.43116 25.912109 177.03516 L 24.556641 172.99414 C 24.431307 172.59814 24.598141 172.24447 24.994141 172.11914 L 48.431641 164.41211 C 48.535974 164.37544 48.634714 164.36009 48.724609 164.36328 z M 124.26562 168.50586 L 121.5 171.27148 L 121.5 190.625 L 124.26562 193.39062 L 129.79297 196.15625 L 129.79297 248.6875 L 132.55664 251.44727 L 143.61914 251.44727 L 146.38086 248.6875 L 146.38086 196.15625 L 151.91211 193.39062 L 154.67773 190.625 L 154.67773 171.27148 L 151.91211 168.50586 L 145 168.50586 L 145 183.71289 L 138.08789 186.47852 L 131.17773 183.71289 L 131.17773 168.50586 L 124.26562 168.50586 z M 162.96875 168.50586 L 160.20703 171.27148 L 160.20703 209.97852 L 157.44336 209.97852 L 154.67773 212.74609 L 154.67773 248.6875 L 157.44336 251.44727 L 168.5 251.44727 L 171.26562 248.6875 L 171.26562 212.74609 L 168.5 209.97852 L 165.73438 209.97852 L 165.73438 171.27148 L 162.96875 168.50586 z M 176.79688 168.50586 C 178.32221 168.50586 179.55664 169.74615 179.55664 171.27148 C 179.55664 172.79815 178.32221 174.03516 176.79688 174.03516 C 175.26473 174.03516 174.03125 172.79815 174.03125 171.27148 C 174.03125 169.74615 175.26473 168.50586 176.79688 168.50586 z M 236.45898 169.72461 C 236.49976 169.71944 236.54198 169.72457 236.58398 169.74023 C 236.68798 169.78157 236.8335 169.90608 236.9375 169.96875 C 236.97883 170.01008 257.16602 186.28125 257.16602 186.28125 C 257.37402 186.46925 257.43783 186.76073 257.3125 187.05273 L 255 192.67773 C 254.87467 192.96973 254.64614 193.13642 254.35547 193.09375 L 228.33398 190.36328 C 228.20865 190.32195 228.16618 190.30258 228.10352 190.28125 C 227.93685 190.21858 227.896 190.07325 228 189.78125 L 229.89648 185.17773 C 230.00048 184.96973 230.14598 184.86343 230.33398 184.88477 L 234 185.38477 C 234.208 185.38477 234.29248 185.3234 234.39648 185.05273 L 237.35547 177.88477 C 237.47947 177.59277 237.45964 177.48861 237.29297 177.36328 L 234.35547 175.13672 C 234.2088 175.01139 234.166 174.84472 234.25 174.63672 L 236.14453 170.05273 C 236.22353 169.84973 236.33667 169.74011 236.45898 169.72461 z M 138.08789 174.03516 C 139.61456 174.03516 140.85547 175.27607 140.85547 176.80273 C 140.85547 178.32807 139.61456 179.56836 138.08789 179.56836 C 136.56256 179.56836 135.32227 178.32807 135.32227 176.80273 C 135.32227 175.27607 136.56256 174.03516 138.08789 174.03516 z M 241.80273 180.91797 C 241.69823 180.93572 241.60323 181.03125 241.52148 181.21875 L 239.72852 185.57422 C 239.58318 185.92755 239.68817 186.09358 239.9375 186.15625 L 248.83398 187.32227 L 249.64453 187.53125 L 249.91797 186.88477 L 249.1875 186.46875 L 242.0625 181.01172 C 242.0105 180.97005 241.9593 180.94014 241.91016 180.92578 C 241.8733 180.91502 241.83757 180.91205 241.80273 180.91797 z M 61.195312 193.80859 C 61.3935 193.82109 61.578125 193.94153 61.703125 194.14453 L 65.056641 199.20898 C 65.244641 199.47965 65.244641 199.77052 65.056641 199.97852 L 48.224609 220 C 48.140609 220.12533 48.097974 220.14468 48.056641 220.16602 C 47.889974 220.27002 47.744641 220.22965 47.556641 219.95898 L 44.806641 215.8125 C 44.682641 215.62583 44.682792 215.4383 44.828125 215.29297 L 47.265625 212.54102 C 47.412292 212.37435 47.391276 212.24948 47.224609 212.02148 L 42.931641 205.5625 C 42.764974 205.29183 42.70199 205.24983 42.472656 205.3125 L 38.994141 206.5 C 38.806141 206.54133 38.639625 206.5005 38.515625 206.3125 L 35.787109 202.1875 C 35.599109 201.9155 35.620443 201.74853 35.787109 201.64453 C 35.869776 201.6032 36.036625 201.52118 36.140625 201.47852 C 36.203292 201.45852 60.994141 193.83398 60.994141 193.83398 C 61.061807 193.81298 61.129271 193.80443 61.195312 193.80859 z M 227.16992 195.76562 C 228.5339 195.83932 229.90839 196.40567 231.27539 197.42188 L 241.00586 204.65039 C 244.52719 207.27572 245.19387 211.23486 241.92188 215.63086 L 240.19336 217.96484 C 237.79736 221.19284 234.37956 222.37972 231.21289 221.15039 C 230.79689 221.00506 230.75439 220.96501 230.65039 220.90234 C 230.50506 220.77701 230.44334 220.61019 230.52734 220.38086 L 231.65039 216.65039 C 231.67172 216.54639 231.71272 216.44337 231.77539 216.35938 C 231.92072 216.172 232.23519 216.04639 232.50586 216.15039 C 233.92186 216.65039 235.08789 216.25568 236.08789 214.90234 L 237.81641 212.56836 C 238.77507 211.27636 238.37987 209.71436 237.17188 208.81836 L 228.40039 202.31836 C 227.12972 201.35969 225.60906 201.50472 224.65039 202.77539 L 222.92188 205.10938 C 221.92117 206.46404 221.90033 207.65168 222.73438 208.90234 C 222.94237 209.15168 222.90057 209.46372 222.75391 209.65039 C 222.69257 209.73439 222.61001 209.79819 222.52734 209.88086 L 219.27539 212.00586 C 219.06739 212.15119 218.85971 212.13072 218.73438 212.02539 C 218.62967 211.96406 218.42121 211.79803 218.17188 211.44336 C 216.08717 208.77669 216.42056 205.29754 218.83789 202.04688 L 220.54688 199.73438 C 222.65604 196.8945 224.89663 195.64398 227.16992 195.76562 z M 57.453125 200.1875 L 56.683594 200.54102 L 48.162109 203.39648 C 47.912776 203.50048 47.827156 203.66652 48.035156 203.97852 L 50.640625 207.89648 C 50.849958 208.20848 51.058094 208.22902 51.246094 208.04102 L 57.183594 201.3125 L 57.828125 200.77148 L 57.453125 200.1875 z M 74.117188 210.42969 C 74.281187 210.43219 74.442557 210.51025 74.587891 210.65625 L 77.630859 213.65625 C 77.921526 213.94825 77.963724 214.30323 77.650391 214.61523 L 60.337891 232.17773 C 60.045891 232.48973 59.650042 232.48927 59.359375 232.19727 L 56.316406 229.19727 C 56.02574 228.9066 56.02574 228.53075 56.316406 228.21875 L 73.630859 210.65625 C 73.786859 210.50025 73.953124 210.42719 74.117188 210.42969 z M 210.61719 212.54492 C 210.78635 212.56309 210.9467 212.6556 211.08203 212.82227 L 226.60352 231.74023 C 226.87418 232.05223 226.81185 232.4266 226.47852 232.69727 L 214.33398 242.65625 C 214.00065 242.92692 213.64567 242.88622 213.375 242.57422 L 210.97852 239.65625 C 210.72918 239.34425 210.7487 238.9484 211.08203 238.67773 L 218.875 232.28125 C 219.20833 232.01058 219.25098 231.67708 218.95898 231.34375 L 216.58398 228.44727 C 216.33332 228.11393 215.95833 228.0516 215.625 228.32227 L 209.22852 233.57422 C 208.89518 233.86489 208.54067 233.82357 208.25 233.49023 L 205.875 230.59375 C 205.62567 230.26042 205.64518 229.90723 205.97852 229.61523 L 212.375 224.36328 C 212.70833 224.09261 212.72965 223.73911 212.45898 223.42578 L 209.95898 220.36328 C 209.68832 220.02995 209.33333 219.96957 209 220.24023 L 201.20703 226.63672 C 200.8737 226.90739 200.49918 226.88607 200.22852 226.55273 L 197.85547 223.65625 C 197.5848 223.32292 197.62565 222.9484 197.95898 222.67773 L 210.10352 212.71875 C 210.27018 212.58342 210.44802 212.52676 210.61719 212.54492 z M 84.25 220.15039 C 84.416667 220.11906 84.598057 220.16072 84.775391 220.27539 L 88.109375 222.38086 C 88.338708 222.50619 88.464844 222.71434 88.464844 222.90234 L 87.816406 238.96484 C 87.816406 239.92218 87.671891 241.13056 87.587891 241.42188 L 87.712891 241.48438 C 88.359557 239.63039 89.817542 236.73406 91.046875 234.77539 L 95.443359 227.79688 C 95.672693 227.44156 96.025724 227.35856 96.400391 227.58789 L 99.984375 229.85938 C 100.36037 230.08871 100.42136 230.44156 100.19336 230.79688 L 87.046875 251.67188 C 86.817542 252.02521 86.463891 252.11019 86.087891 251.88086 L 82.796875 249.79688 C 82.567542 249.64956 82.464844 249.50489 82.464844 249.21289 L 82.734375 233.54688 C 82.775708 232.54623 82.922177 231.67189 82.964844 231.58789 L 82.816406 231.50586 C 82.483073 232.65119 81.233891 235.17301 79.837891 237.40234 L 75.464844 244.35938 C 75.23551 244.71404 74.860526 244.79769 74.505859 244.56836 L 70.880859 242.29688 C 70.527526 242.06689 70.442542 241.69122 70.671875 241.33789 L 83.816406 220.46484 C 83.931073 220.28751 84.083333 220.18172 84.25 220.15039 z M 138.08789 239.01172 C 141.13989 239.01172 142.23386 240.10425 142.23438 243.15625 C 142.23438 246.20825 141.13989 247.30273 138.08789 247.30273 C 135.03589 247.30273 133.94336 246.20825 133.94336 243.15625 C 133.94336 240.10425 135.03589 239.01172 138.08789 239.01172 z "
       style="fill:#003a3e;fill-opacity:1;fill-rule:nonzero;stroke:#ffc400;stroke-width:0.8;stroke-linecap:butt;stroke-linejoin:miter;stroke-miterlimit:4;stroke-dasharray:none;stroke-opacity:1" /></g></svg>